# xmcd
#
# Track frame offsets:
#	150
#	26712
#	53282
#	80541
#	101868
#	126466
#	154077
#	179787
#	203695
#	229707
#	254194
#	278733
#
# Disc length: 4066 seconds
#
# Revision: 4270944585
# Processed by: cddbd v1.5.2PL0 Copyright (c) Steve Scherf et al.
# Submitted via: EZCDAudioConverter 8.0.2.1
#
DISCID=ab0fe00c
DTITLE=Yến Khoa - Bất Hủ 2. Giọt Lệ Đài Trang
DYEAR=2000
DGENRE=Contemporary Pop
TTITLE0=Yến Khoa - Giọt Lệ Đài Trang
TTITLE1=Yến Khoa - Mưa nửa đêm
TTITLE2=Yến Khoa, Mai Tuấn - Dối lòng
TTITLE3=Yến Khoa - Tình chỉ đẹp
TTITLE4=Yến Khoa - Tìm mãi thương yêu
TTITLE5=Yến Khoa - Yêu lầm
TTITLE6=Yến Khoa - Phố vắng em rồi
TTITLE7=Yến Khoa - Chuyện ngàn xưa
TTITLE8=Yến Khoa, Ngọc Sơn - Dĩ vãng buồn
TTITLE9=Yến Khoa - Thà trắng thà đen
TTITLE10=Yến Khoa - Gái nhà nghèo
TTITLE11=Yến Khoa - Bạc trắng lửa hồng
EXTD=
EXTT0=
EXTT1=
EXTT2=
EXTT3=
EXTT4=
EXTT5=
EXTT6=
EXTT7=
EXTT8=
EXTT9=
EXTT10=
EXTT11=
PLAYORDER=
